<svg width="512" height="512" viewBox="0 0 512 512" xmlns="http://www.w3.org/2000/svg">
  <!-- Gamepad Body -->
  <path d="M140,160 C100,160 60,190 40,240 C20,290 20,380 60,420 C100,460 160,440 200,400 L312,400 C352,440 412,460 452,420 C492,380 492,290 472,240 C452,190 412,160 372,160 L140,160 Z" fill="#4a4a4a" />

  <!-- Highlights -->
  <path d="M140,170 C110,170 80,195 65,230 C55,250 55,300 70,330" fill="none" stroke="#ffffff" stroke-width="8" stroke-linecap="round" opacity="0.2" />

  <!-- Analog Sticks -->
  <circle cx="180" cy="320" r="45" fill="#2c2c2c" />
  <circle cx="180" cy="320" r="35" fill="#757575" />
  <circle cx="332" cy="320" r="45" fill="#2c2c2c" />
  <circle cx="332" cy="320" r="35" fill="#757575" />

  <!-- D-Pad (Left) -->
  <rect x="90" y="240" width="40" height="15" rx="5" fill="#757575" />
  <rect x="102.5" y="227.5" width="15" height="40" rx="5" fill="#757575" />

  <!-- Action Buttons (Right) - Neutral Colors -->
  <circle cx="380" cy="247.5" r="18" fill="#757575" /> <!-- North -->
  <circle cx="412.5" cy="280" r="18" fill="#757575" /> <!-- East -->
  <circle cx="380" cy="312.5" r="18" fill="#757575" /> <!-- South -->
  <circle cx="347.5" cy="280" r="18" fill="#757575" /> <!-- West -->

  <!-- Accent Detail -->
  <rect x="236" y="190" width="40" height="15" rx="7.5" fill="#6200ee" opacity="0.8" />
</svg>
